<svg width="780" height="217" viewBox="0 0 780 217" fill="none" xmlns="http://www.w3.org/2000/svg">
<rect x="49" width="59" height="183" rx="29.5" fill="#93B1FF"/>
<rect x="721" y="6" width="59" height="183" rx="29.5" fill="#93B1FF"/>
<ellipse cx="54" cy="156" rx="54" ry="55" fill="#93B1FF"/>
<ellipse cx="726" cy="162" rx="54" ry="55" fill="#93B1FF"/>
<circle cx="54" cy="156" r="37" fill="#343434"/>
<circle cx="726" cy="162" r="37" fill="#343434"/>
<rect x="121" y="65" width="59" height="146" rx="29.5" fill="#93B1FF"/>
<circle cx="150.5" cy="29.5" r="29.5" fill="#93B1FF"/>
<path d="M269.17 175.969C269.17 172.665 267.441 170.015 263.984 168.018C260.527 166.02 253.959 163.946 244.279 161.795C234.6 159.644 226.61 156.84 220.311 153.383C214.011 149.849 209.21 145.585 205.906 140.592C202.603 135.598 200.951 129.875 200.951 123.422C200.951 111.975 205.676 102.564 215.125 95.1895C224.574 87.7376 236.943 84.0117 252.23 84.0117C268.671 84.0117 281.884 87.7376 291.871 95.1895C301.858 102.641 306.852 112.436 306.852 124.574H267.902C267.902 114.587 262.64 109.594 252.115 109.594C248.044 109.594 244.625 110.746 241.859 113.051C239.094 115.279 237.711 118.083 237.711 121.463C237.711 124.92 239.401 127.724 242.781 129.875C246.161 132.026 251.539 133.793 258.914 135.176C266.366 136.559 272.896 138.21 278.504 140.131C297.249 146.584 306.621 158.146 306.621 174.816C306.621 186.186 301.551 195.443 291.41 202.588C281.346 209.732 268.286 213.305 252.23 213.305C241.552 213.305 232.026 211.384 223.652 207.543C215.279 203.702 208.749 198.478 204.062 191.871C199.376 185.264 197.033 178.312 197.033 171.014H233.332C233.486 176.775 235.406 181.001 239.094 183.689C242.781 186.301 247.506 187.607 253.268 187.607C258.568 187.607 262.525 186.532 265.137 184.381C267.826 182.23 269.17 179.426 269.17 175.969Z" fill="#93B1FF"/>
<ellipse cx="503" cy="148.5" rx="60" ry="62.5" fill="#93B1FF"/>
<path d="M381.609 182.344C387.064 182.344 391.289 180.884 394.285 177.965C397.281 174.969 398.741 170.82 398.664 165.52H435.078C435.078 179.194 430.161 190.41 420.328 199.168C410.572 207.926 397.973 212.305 382.531 212.305C364.401 212.305 350.112 206.62 339.664 195.25C329.216 183.88 323.992 168.132 323.992 148.004V146.391C323.992 133.792 326.297 122.691 330.906 113.088C335.592 103.408 342.314 95.9948 351.072 90.8477C359.83 85.6237 370.201 83.0117 382.186 83.0117C398.395 83.0117 411.263 87.5059 420.789 96.4941C430.315 105.482 435.078 117.659 435.078 133.023H398.664C398.664 126.57 397.089 121.615 393.939 118.158C390.79 114.701 386.564 112.973 381.264 112.973C371.2 112.973 365.323 119.387 363.633 132.217C363.095 136.288 362.826 141.896 362.826 149.041C362.826 161.563 364.324 170.244 367.32 175.084C370.316 179.924 375.079 182.344 381.609 182.344Z" fill="#93B1FF"/>
<ellipse cx="216" cy="176" rx="19" ry="20" fill="#93B1FF"/>
<ellipse cx="287.5" cy="119" rx="19.5" ry="21" fill="#93B1FF"/>
<ellipse cx="416.5" cy="172" rx="19.5" ry="21" fill="#93B1FF"/>
<ellipse cx="416.5" cy="127" rx="19.5" ry="21" fill="#93B1FF"/>
<circle cx="655.5" cy="91.5" r="19.5" fill="#93B1FF"/>
<circle cx="605.5" cy="193.5" r="19.5" fill="#93B1FF"/>
<ellipse cx="605.5" cy="80" rx="19.5" ry="21" fill="#93B1FF"/>
<circle cx="503" cy="148" r="31" fill="#343434"/>
<path d="M662.311 110.463L649.52 109.541C637.305 109.541 629.469 113.382 626.012 121.064V200H587.178V75.3164H623.592L624.859 91.334C631.389 79.1191 640.493 73.0117 652.17 73.0117C656.318 73.0117 659.929 73.4727 663.002 74.3945L662.311 110.463Z" fill="#93B1FF"/>
</svg>

