<svg width="177" height="78" viewBox="0 0 177 78" fill="none" xmlns="http://www.w3.org/2000/svg">
<g filter="url(#filter0_d)">
<path d="M52.9219 23V2.29785H57.3115V23H52.9219ZM73.2275 18.2988C73.2275 19.9225 72.6611 21.1592 71.5283 22.0088C70.4049 22.8584 68.7199 23.2832 66.4731 23.2832C65.3215 23.2832 64.3397 23.203 63.5278 23.0425C62.716 22.8914 61.9561 22.6649 61.248 22.3628V18.7944C62.0505 19.172 62.952 19.4883 63.9526 19.7432C64.9627 19.998 65.8501 20.1255 66.6147 20.1255C68.1818 20.1255 68.9653 19.6724 68.9653 18.7661C68.9653 18.4263 68.8615 18.1525 68.6538 17.9448C68.4461 17.7277 68.0874 17.487 67.5776 17.2227C67.0679 16.9489 66.3882 16.6326 65.5386 16.2739C64.3208 15.7642 63.424 15.2922 62.8481 14.8579C62.2817 14.4237 61.8664 13.9281 61.6021 13.3711C61.3472 12.8047 61.2197 12.1108 61.2197 11.2896C61.2197 9.88298 61.7625 8.79736 62.8481 8.03271C63.9432 7.25863 65.4914 6.87158 67.4927 6.87158C69.3996 6.87158 71.2546 7.28695 73.0576 8.11768L71.7549 11.2329C70.9619 10.8931 70.2209 10.6146 69.5317 10.3975C68.8426 10.1803 68.1393 10.0718 67.4219 10.0718C66.1475 10.0718 65.5103 10.4163 65.5103 11.1055C65.5103 11.4925 65.7132 11.8276 66.1191 12.1108C66.5345 12.394 67.436 12.8141 68.8237 13.3711C70.0604 13.8714 70.9666 14.3387 71.5425 14.7729C72.1183 15.2072 72.5431 15.7075 72.8169 16.2739C73.0907 16.8403 73.2275 17.5153 73.2275 18.2988ZM85.4053 6.87158C87.2744 6.87158 88.7376 7.60319 89.7949 9.06641C90.8522 10.5202 91.3809 12.5168 91.3809 15.0562C91.3809 17.6711 90.8333 19.696 89.7383 21.1309C88.6527 22.5658 87.1706 23.2832 85.292 23.2832C83.4323 23.2832 81.9738 22.6082 80.9165 21.2583H80.6191L79.897 23H76.5977V0.966797H80.9165V6.09277C80.9165 6.74414 80.8599 7.78727 80.7466 9.22217H80.9165C81.9266 7.65511 83.4229 6.87158 85.4053 6.87158ZM84.0176 10.3267C82.9508 10.3267 82.172 10.6571 81.6812 11.3179C81.1903 11.9692 80.9354 13.0501 80.9165 14.5605V15.0278C80.9165 16.7271 81.1667 17.9448 81.667 18.6812C82.1768 19.4175 82.9792 19.7856 84.0742 19.7856C84.9616 19.7856 85.6649 19.3797 86.1841 18.5679C86.7127 17.7466 86.9771 16.5571 86.9771 14.9995C86.9771 13.4419 86.7127 12.276 86.1841 11.502C85.6554 10.7184 84.9333 10.3267 84.0176 10.3267ZM105.003 23L104.167 20.8477H104.054C103.327 21.7633 102.577 22.4006 101.803 22.7593C101.038 23.1086 100.037 23.2832 98.8008 23.2832C97.2809 23.2832 96.082 22.849 95.2041 21.9805C94.3356 21.112 93.9014 19.8753 93.9014 18.2705C93.9014 16.5902 94.4867 15.3535 95.6572 14.5605C96.8372 13.7581 98.612 13.3145 100.981 13.2295L103.729 13.1445V12.4507C103.729 10.8459 102.907 10.0435 101.265 10.0435C99.9997 10.0435 98.5129 10.4258 96.8042 11.1904L95.374 8.27344C97.196 7.31999 99.2161 6.84326 101.435 6.84326C103.559 6.84326 105.187 7.30583 106.32 8.23096C107.453 9.15609 108.019 10.5627 108.019 12.4507V23H105.003ZM103.729 15.665L102.058 15.7217C100.802 15.7594 99.8675 15.986 99.2539 16.4014C98.6403 16.8167 98.3335 17.4492 98.3335 18.2988C98.3335 19.5166 99.0321 20.1255 100.429 20.1255C101.43 20.1255 102.228 19.8376 102.822 19.2617C103.426 18.6859 103.729 17.9212 103.729 16.9678V15.665ZM119.149 19.8423C119.904 19.8423 120.81 19.6771 121.868 19.3467V22.561C120.792 23.0425 119.47 23.2832 117.903 23.2832C116.175 23.2832 114.915 22.849 114.122 21.9805C113.339 21.1025 112.947 19.7904 112.947 18.0439V10.4116H110.879V8.58496L113.258 7.14062L114.504 3.79883H117.266V7.16895H121.698V10.4116H117.266V18.0439C117.266 18.6576 117.436 19.1107 117.775 19.4033C118.125 19.696 118.583 19.8423 119.149 19.8423ZM13.3989 44.6538C11.7469 44.6538 10.4678 45.2769 9.56152 46.5229C8.65527 47.7596 8.20215 49.4871 8.20215 51.7056C8.20215 56.3218 9.93441 58.6299 13.3989 58.6299C14.8527 58.6299 16.6133 58.2664 18.6807 57.5396V61.2212C16.9814 61.9292 15.084 62.2832 12.9883 62.2832C9.97689 62.2832 7.6735 61.3722 6.07812 59.5503C4.48275 57.7189 3.68506 55.0946 3.68506 51.6772C3.68506 49.5249 4.07682 47.6416 4.86035 46.0273C5.64388 44.4036 6.76725 43.1623 8.23047 42.3032C9.70312 41.4347 11.4259 41.0005 13.3989 41.0005C15.4097 41.0005 17.4299 41.4867 19.4595 42.459L18.0435 46.0273C17.2694 45.6592 16.4906 45.3382 15.707 45.0645C14.9235 44.7907 14.1541 44.6538 13.3989 44.6538ZM26.1997 54.0562C26.1997 55.6232 26.4546 56.8079 26.9644 57.6104C27.4836 58.4128 28.3237 58.814 29.4849 58.814C30.6366 58.814 31.4626 58.4175 31.9629 57.6245C32.4727 56.8221 32.7275 55.6326 32.7275 54.0562C32.7275 52.4891 32.4727 51.3138 31.9629 50.5303C31.4531 49.7467 30.6177 49.355 29.4565 49.355C28.3049 49.355 27.4741 49.7467 26.9644 50.5303C26.4546 51.3044 26.1997 52.4797 26.1997 54.0562ZM37.1455 54.0562C37.1455 56.6333 36.4658 58.6488 35.1064 60.1025C33.7471 61.5563 31.8543 62.2832 29.4282 62.2832C27.9084 62.2832 26.5679 61.9528 25.4067 61.292C24.2456 60.6217 23.3535 59.6636 22.7305 58.4175C22.1074 57.1714 21.7959 55.7176 21.7959 54.0562C21.7959 51.4696 22.4709 49.4588 23.8208 48.0239C25.1707 46.589 27.0682 45.8716 29.5132 45.8716C31.033 45.8716 32.3735 46.202 33.5347 46.8628C34.6958 47.5236 35.5879 48.4723 36.2109 49.709C36.834 50.9456 37.1455 52.3947 37.1455 54.0562ZM54.8882 62H50.5693V52.7534C50.5693 51.6112 50.3758 50.7568 49.9888 50.1904C49.6112 49.6146 49.0117 49.3267 48.1904 49.3267C47.0859 49.3267 46.2835 49.7326 45.7832 50.5444C45.2829 51.3563 45.0327 52.6921 45.0327 54.5518V62H40.7139V46.1689H44.0132L44.5938 48.1938H44.8345C45.2593 47.467 45.8729 46.9006 46.6753 46.4946C47.4777 46.0793 48.3981 45.8716 49.4365 45.8716C51.806 45.8716 53.4108 46.6457 54.251 48.1938H54.6333C55.0581 47.4575 55.6812 46.8864 56.5024 46.4805C57.3332 46.0745 58.2677 45.8716 59.3062 45.8716C61.0998 45.8716 62.4544 46.3341 63.3701 47.2593C64.2952 48.175 64.7578 49.6476 64.7578 51.6772V62H60.4248V52.7534C60.4248 51.6112 60.2313 50.7568 59.8442 50.1904C59.4666 49.6146 58.8672 49.3267 58.0459 49.3267C56.9886 49.3267 56.1956 49.7043 55.667 50.4595C55.1478 51.2147 54.8882 52.4136 54.8882 54.0562V62ZM83.3784 62H79.0596V52.7534C79.0596 51.6112 78.866 50.7568 78.479 50.1904C78.1014 49.6146 77.502 49.3267 76.6807 49.3267C75.5762 49.3267 74.7738 49.7326 74.2734 50.5444C73.7731 51.3563 73.5229 52.6921 73.5229 54.5518V62H69.2041V46.1689H72.5034L73.084 48.1938H73.3247C73.7495 47.467 74.3631 46.9006 75.1655 46.4946C75.9679 46.0793 76.8883 45.8716 77.9268 45.8716C80.2962 45.8716 81.901 46.6457 82.7412 48.1938H83.1235C83.5483 47.4575 84.1714 46.8864 84.9927 46.4805C85.8234 46.0745 86.758 45.8716 87.7964 45.8716C89.59 45.8716 90.9447 46.3341 91.8604 47.2593C92.7855 48.175 93.248 49.6476 93.248 51.6772V62H88.915V52.7534C88.915 51.6112 88.7215 50.7568 88.3345 50.1904C87.9569 49.6146 87.3574 49.3267 86.5361 49.3267C85.4788 49.3267 84.6859 49.7043 84.1572 50.4595C83.638 51.2147 83.3784 52.4136 83.3784 54.0562V62ZM108.909 62L108.329 59.9751H108.102C107.639 60.7114 106.983 61.2826 106.134 61.6885C105.284 62.085 104.317 62.2832 103.231 62.2832C101.371 62.2832 99.9694 61.7876 99.0254 60.7964C98.0814 59.7957 97.6094 58.3608 97.6094 56.4917V46.1689H101.928V55.4155C101.928 56.5578 102.131 57.4168 102.537 57.9927C102.943 58.5591 103.59 58.8423 104.477 58.8423C105.685 58.8423 106.559 58.4411 107.097 57.6387C107.635 56.8268 107.904 55.4863 107.904 53.6172V46.1689H112.223V62H108.909ZM131.367 62H127.048V52.7534C127.048 51.6112 126.845 50.7568 126.439 50.1904C126.034 49.6146 125.387 49.3267 124.5 49.3267C123.291 49.3267 122.418 49.7326 121.88 50.5444C121.342 51.3468 121.073 52.6826 121.073 54.5518V62H116.754V46.1689H120.053L120.634 48.1938H120.875C121.356 47.4292 122.017 46.8534 122.857 46.4663C123.707 46.0698 124.669 45.8716 125.746 45.8716C127.586 45.8716 128.984 46.3719 129.937 47.3726C130.89 48.3638 131.367 49.7987 131.367 51.6772V62ZM135.629 42.0767C135.629 40.6701 136.413 39.9668 137.98 39.9668C139.547 39.9668 140.331 40.6701 140.331 42.0767C140.331 42.7469 140.132 43.2708 139.736 43.6484C139.349 44.0166 138.764 44.2007 137.98 44.2007C136.413 44.2007 135.629 43.4927 135.629 42.0767ZM140.132 62H135.813V46.1689H140.132V62ZM151.347 58.8423C152.102 58.8423 153.009 58.6771 154.066 58.3467V61.561C152.99 62.0425 151.668 62.2832 150.101 62.2832C148.374 62.2832 147.113 61.849 146.32 60.9805C145.537 60.1025 145.145 58.7904 145.145 57.0439V49.4116H143.078V47.585L145.457 46.1406L146.703 42.7988H149.464V46.1689H153.896V49.4116H149.464V57.0439C149.464 57.6576 149.634 58.1107 149.974 58.4033C150.323 58.696 150.781 58.8423 151.347 58.8423ZM155.015 46.1689H159.744L162.732 55.0757C162.987 55.8498 163.161 56.7655 163.256 57.8228H163.341C163.445 56.8504 163.648 55.9347 163.95 55.0757L166.881 46.1689H171.511L164.813 64.0249C164.2 65.6769 163.322 66.9136 162.18 67.7349C161.047 68.5562 159.721 68.9668 158.201 68.9668C157.455 68.9668 156.723 68.8866 156.006 68.7261V65.2993C156.525 65.422 157.091 65.4834 157.705 65.4834C158.47 65.4834 159.135 65.2474 159.702 64.7754C160.278 64.3128 160.726 63.6095 161.047 62.6655L161.302 61.8867L155.015 46.1689Z" fill="#262D6B"/>
</g>
<defs>
<filter id="filter0_d" x="0.685059" y="0.966797" width="175.826" height="77" filterUnits="userSpaceOnUse" color-interpolation-filters="sRGB">
<feFlood flood-opacity="0" result="BackgroundImageFix"/>
<feColorMatrix in="SourceAlpha" type="matrix" values="0 0 0 0 0 0 0 0 0 0 0 0 0 0 0 0 0 0 127 0"/>
<feOffset dx="1" dy="5"/>
<feGaussianBlur stdDeviation="2"/>
<feColorMatrix type="matrix" values="0 0 0 0 0 0 0 0 0 0 0 0 0 0 0 0 0 0 0.25 0"/>
<feBlend mode="normal" in2="BackgroundImageFix" result="effect1_dropShadow"/>
<feBlend mode="normal" in="SourceGraphic" in2="effect1_dropShadow" result="shape"/>
</filter>
</defs>
</svg>
